<?xml version="1.0" encoding="UTF-8" standalone="no"?>
<!-- Created with Inkscape (http://www.inkscape.org/) -->

<svg
   width="210mm"
   height="297mm"
   viewBox="0 0 210 297"
   version="1.1"
   id="svg5"
   xml:space="preserve"
   inkscape:version="1.2.2 (732a01da63, 2022-12-09)"
   sodipodi:docname="Bomb.svg"
   xmlns:inkscape="http://www.inkscape.org/namespaces/inkscape"
   xmlns:sodipodi="http://sodipodi.sourceforge.net/DTD/sodipodi-0.dtd"
   xmlns:xlink="http://www.w3.org/1999/xlink"
   xmlns="http://www.w3.org/2000/svg"
   xmlns:svg="http://www.w3.org/2000/svg"><sodipodi:namedview
     id="namedview7"
     pagecolor="#505050"
     bordercolor="#eeeeee"
     borderopacity="1"
     inkscape:showpageshadow="0"
     inkscape:pageopacity="0"
     inkscape:pagecheckerboard="0"
     inkscape:deskcolor="#505050"
     inkscape:document-units="mm"
     showgrid="false"
     inkscape:zoom="5.43754"
     inkscape:cx="295.72196"
     inkscape:cy="195.30891"
     inkscape:window-width="2560"
     inkscape:window-height="1377"
     inkscape:window-x="3832"
     inkscape:window-y="178"
     inkscape:window-maximized="1"
     inkscape:current-layer="layer1" /><defs
     id="defs2"><linearGradient
       id="linearGradient4756"
       inkscape:swatch="solid"><stop
         style="stop-color:#3b3b3b;stop-opacity:1;"
         offset="0"
         id="stop4754" /></linearGradient><linearGradient
       id="linearGradient4474"
       inkscape:swatch="solid"><stop
         style="stop-color:#3b3b3b;stop-opacity:1;"
         offset="0"
         id="stop4472" /></linearGradient><linearGradient
       id="linearGradient4468"
       inkscape:swatch="solid"><stop
         style="stop-color:#3b3b3b;stop-opacity:1;"
         offset="0"
         id="stop4466" /></linearGradient><linearGradient
       inkscape:collect="always"
       xlink:href="#linearGradient4468"
       id="linearGradient4470"
       x1="71.096279"
       y1="60.003843"
       x2="80.268125"
       y2="60.003843"
       gradientUnits="userSpaceOnUse" /><linearGradient
       inkscape:collect="always"
       xlink:href="#linearGradient4474"
       id="linearGradient4476"
       x1="70.837807"
       y1="55.370964"
       x2="80.259137"
       y2="55.370964"
       gradientUnits="userSpaceOnUse" /><linearGradient
       inkscape:collect="always"
       xlink:href="#linearGradient4756"
       id="linearGradient4758"
       x1="68.490654"
       y1="41.373595"
       x2="82.455976"
       y2="41.373595"
       gradientUnits="userSpaceOnUse"
       gradientTransform="matrix(0.72906924,0,0,0.72906924,20.566913,12.328905)" /></defs><g
     inkscape:label="Layer 1"
     inkscape:groupmode="layer"
     id="layer1"><path
       style="fill:#b3b3b3;fill-opacity:1;stroke-width:0.5;stroke-dasharray:none;stroke:url(#linearGradient4476)"
       d="m 71.087291,59.869148 0.129135,1.678163 c 0,0 0.313588,1.284151 0.725519,1.771466 0.410497,0.485618 1.620288,1.006804 1.620288,1.006804 l 2.273353,0.763023 c 0,0 1.861859,-0.510997 2.75255,-1.198734 0.327325,-0.252741 0.841909,-0.783892 1.108368,-1.281999 0.461512,-0.862733 0.562633,-2.853608 0.562633,-2.853608 l -0.0063,-11.28825 -3.512981,-2.80789 -2.389347,-0.0048 -3.512702,2.92773 z"
       id="path2479"
       sodipodi:nodetypes="ccsccsscccccc" /><path
       style="fill:#f7cb1b;fill-opacity:1;stroke:url(#linearGradient4470);stroke-width:0.5;stroke-dasharray:none"
       d="m 71.337127,59.927633 0.09473,1.626553 c 0,0 0.107147,1.284151 0.519078,1.771466 0.410497,0.485618 1.620288,1.006804 1.620288,1.006804 l 2.273353,0.763023 c 0,0 1.861859,-0.510997 2.75255,-1.198734 0.327325,-0.252741 0.841909,-0.783892 1.108368,-1.281999 0.461512,-0.862733 0.338988,-2.819201 0.338988,-2.819201 -0.155308,-5.436866 -8.821741,-8.354192 -8.707353,0.132088 z"
       id="path2479-8"
       sodipodi:nodetypes="ccsccsscc" /><path
       style="fill:#626262;fill-opacity:0.90085;stroke:url(#linearGradient4758);stroke-width:0.364535;stroke-dasharray:none"
       d="m 74.071649,45.71587 -3.570306,-5.092597 0.264243,-0.409151 4.345787,-0.0017 0.0156,-0.478996 c 0,0 0.0358,-0.193846 0.09581,-0.266853 0.08088,-0.09838 0.241866,-0.191618 0.327832,-0.196225 0.229816,-0.01231 0.374035,0.08641 0.479944,0.228453 0.117959,0.158207 0.0913,0.46078 0.0913,0.46078 l 0.01021,0.265984 4.513584,-0.0023 0.276832,0.37233 -3.799977,5.106673 z"
       id="path2481"
       sodipodi:nodetypes="cccccssscccccc" /><path
       style="fill:#3e3939;fill-opacity:1;stroke-width:0.487913"
       d="m 71.307347,59.277655 8.750746,-0.128772 0.02172,0.488716 -0.0363,0.516651 -8.699166,0.180994 -0.03012,-0.52736 z"
       id="path2579"
       sodipodi:nodetypes="ccccccc" /><path
       style="fill:#3e3939;fill-opacity:1;stroke-width:0.487913"
       d="m 71.178708,52.336292 8.918709,-0.116608 -0.01014,0.482634 -0.01314,0.534897 -8.864233,0.174912 -0.01852,-0.52736 z"
       id="path2579-6"
       sodipodi:nodetypes="ccccccc" /><path
       style="fill:#726f6f;fill-opacity:1;stroke-width:0.57699"
       d="m 71.204561,53.315007 0.09746,6.071231 8.756511,-0.161365 0.02417,-6.117887 z"
       id="path2682"
       sodipodi:nodetypes="ccccc" /></g></svg>
