<?xml version="1.0" encoding="UTF-8" standalone="no"?>
<!-- Created with Inkscape (http://www.inkscape.org/) -->

<svg
   width="210mm"
   height="297mm"
   viewBox="0 0 210 297"
   version="1.1"
   id="svg4069"
   inkscape:export-filename="Enemy2.png"
   inkscape:export-xdpi="96"
   inkscape:export-ydpi="96"
   inkscape:version="1.2.2 (732a01da63, 2022-12-09)"
   sodipodi:docname="Enemy2.svg"
   xmlns:inkscape="http://www.inkscape.org/namespaces/inkscape"
   xmlns:sodipodi="http://sodipodi.sourceforge.net/DTD/sodipodi-0.dtd"
   xmlns="http://www.w3.org/2000/svg"
   xmlns:svg="http://www.w3.org/2000/svg">
  <sodipodi:namedview
     id="namedview4071"
     pagecolor="#505050"
     bordercolor="#eeeeee"
     borderopacity="1"
     inkscape:showpageshadow="0"
     inkscape:pageopacity="0"
     inkscape:pagecheckerboard="0"
     inkscape:deskcolor="#505050"
     inkscape:document-units="mm"
     showgrid="false"
     inkscape:zoom="1.5906374"
     inkscape:cx="416.18536"
     inkscape:cy="233.86851"
     inkscape:window-width="2560"
     inkscape:window-height="1377"
     inkscape:window-x="3832"
     inkscape:window-y="178"
     inkscape:window-maximized="1"
     inkscape:current-layer="svg4069" />
  <defs
     id="defs4066" />
  <rect
     style="fill:#000000;fill-opacity:1;stroke-width:0"
     id="rect799-0-0"
     width="116.4388"
     height="3.8313861"
     x="29.062397"
     y="-101.78333"
     ry="0.00013319547"
     transform="scale(1,-1)" />
  <g
     inkscape:label="Layer 1"
     inkscape:groupmode="layer"
     id="layer1">
    <rect
       style="fill:#ffffff;stroke-width:0"
       id="rect4073"
       width="4.1862764"
       height="3.7262979"
       x="32.435898"
       y="29.333334"
       ry="0.0063519571" />
    <rect
       style="fill:#ffffff;stroke-width:0"
       id="rect4073-9"
       width="4.1862764"
       height="3.7262979"
       x="36.498573"
       y="25.908924"
       ry="0.0063519571" />
    <rect
       style="fill:#ffffff;stroke-width:0"
       id="rect4073-2"
       width="4.1862764"
       height="3.7262979"
       x="36.498573"
       y="32.989056"
       ry="0.0063519571" />
    <rect
       style="fill:#ffffff;stroke-width:0"
       id="rect4073-0"
       width="4.1862764"
       height="3.7262979"
       x="40.587101"
       y="29.448992"
       ry="0.0063519571" />
    <rect
       style="fill:#ffffff;stroke-width:0"
       id="rect4073-9-4"
       width="4.1862764"
       height="3.7262979"
       x="44.737492"
       y="25.753708"
       ry="0.0063519571" />
    <rect
       style="fill:#ffffff;stroke-width:0"
       id="rect4073-2-6"
       width="4.1862764"
       height="3.7262979"
       x="44.737495"
       y="32.983421"
       ry="0.0063519571" />
    <rect
       style="fill:#ffffff;stroke-width:0"
       id="rect4073-0-4"
       width="4.1862764"
       height="3.7262979"
       x="48.826023"
       y="29.393494"
       ry="0.0063519571" />
    <rect
       style="fill:#e61515;fill-opacity:1;stroke-width:0"
       id="rect799"
       width="86.968079"
       height="24.668606"
       x="29.020859"
       y="-99.515648"
       ry="0.00085758691"
       transform="scale(1,-1)" />
    <rect
       style="fill:#e61515;fill-opacity:1;stroke-width:0"
       id="rect799-0"
       width="81.084587"
       height="18.286514"
       x="42.873642"
       y="-99.390022"
       ry="0.00063571794"
       transform="scale(1,-1)" />
    <rect
       style="fill:#e61515;fill-opacity:1;stroke-width:0"
       id="rect799-0-1"
       width="81.084587"
       height="18.286514"
       x="39.134136"
       y="-95.700378"
       ry="0.00063571794"
       transform="scale(1,-1)" />
    <rect
       style="fill:#000000;fill-opacity:1;stroke-width:0"
       id="rect799-1"
       width="86.968079"
       height="2.9296052"
       x="29.012535"
       y="-77.35186"
       ry="0.00010184568"
       transform="scale(1,-1)" />
    <rect
       style="fill:#e61515;fill-opacity:1;stroke-width:0"
       id="rect799-0-1-3"
       width="62.237473"
       height="13.101065"
       x="83.310181"
       y="-99.58947"
       ry="0.00045544939"
       transform="scale(1,-1)" />
    <rect
       style="fill:#e61515;fill-opacity:1;stroke-width:0"
       id="rect799-0-1-3-6"
       width="62.237473"
       height="13.101065"
       x="20.23716"
       y="-99.58947"
       ry="0.00045544939"
       transform="scale(1,-1)" />
    <rect
       style="fill:#e61515;fill-opacity:1;stroke-width:0"
       id="rect799-0-1-3-0"
       width="62.237473"
       height="13.101065"
       x="23.827085"
       y="-92.808495"
       ry="0.00045544939"
       transform="scale(1,-1)" />
    <rect
       style="fill:#e61515;fill-opacity:1;stroke-width:0"
       id="rect799-0-1-7"
       width="58.049225"
       height="12.602464"
       x="70.346558"
       y="-96.099258"
       ry="0.00043811588"
       transform="scale(1,-1)" />
    <rect
       style="fill:#000000;fill-opacity:1;stroke-width:0"
       id="rect799-1-5"
       width="9.7846537"
       height="2.9296052"
       x="31.605263"
       y="-85.329483"
       ry="0.00010184568"
       transform="scale(1,-1)" />
    <rect
       style="fill:#000000;fill-opacity:1;stroke-width:0"
       id="rect799-1-5-2"
       width="9.7846537"
       height="2.9296052"
       x="39.582878"
       y="-90.215767"
       ry="0.00010184568"
       transform="scale(1,-1)" />
    <rect
       style="fill:#000000;fill-opacity:1;stroke-width:0"
       id="rect799-1-5-6"
       width="9.7846537"
       height="2.9296052"
       x="47.26133"
       y="-85.429207"
       ry="0.00010184568"
       transform="scale(1,-1)" />
    <rect
       style="fill:#000000;fill-opacity:1;stroke-width:0"
       id="rect799-1-5-0"
       width="9.7846537"
       height="2.9296052"
       x="63.765022"
       y="-85.379349"
       ry="0.00010184568"
       transform="scale(1,-1)" />
    <rect
       style="fill:#000000;fill-opacity:1;stroke-width:0"
       id="rect799-1-5-2-5"
       width="9.7846537"
       height="2.9296052"
       x="71.742638"
       y="-90.265633"
       ry="0.00010184568"
       transform="scale(1,-1)" />
    <rect
       style="fill:#000000;fill-opacity:1;stroke-width:0"
       id="rect799-1-5-6-6"
       width="9.7846537"
       height="2.9296052"
       x="79.421089"
       y="-85.479073"
       ry="0.00010184568"
       transform="scale(1,-1)" />
    <rect
       style="fill:#000000;fill-opacity:1;stroke-width:0"
       id="rect799-1-5-01"
       width="9.7846537"
       height="2.9296052"
       x="94.17968"
       y="-85.578789"
       ry="0.00010184568"
       transform="scale(1,-1)" />
    <rect
       style="fill:#000000;fill-opacity:1;stroke-width:0"
       id="rect799-1-5-2-57"
       width="9.7846537"
       height="2.9296052"
       x="102.1573"
       y="-90.465073"
       ry="0.00010184568"
       transform="scale(1,-1)" />
    <rect
       style="fill:#000000;fill-opacity:1;stroke-width:0"
       id="rect799-1-5-6-9"
       width="9.7846537"
       height="2.9296052"
       x="109.83575"
       y="-85.678513"
       ry="0.00010184568"
       transform="scale(1,-1)" />
  </g>
  <rect
     style="fill:#000000;fill-opacity:1;stroke-width:0"
     id="rect871"
     width="1.6952431"
     height="1.3960825"
     x="77.108253"
     y="23.784048"
     ry="0.00099278835"
     inkscape:export-filename="CrackDecals\Crack1.png"
     inkscape:export-xdpi="96"
     inkscape:export-ydpi="96" />
  <rect
     style="fill:#000000;fill-opacity:1;stroke-width:0"
     id="rect871-9"
     width="1.6952431"
     height="1.3960825"
     x="77.809425"
     y="24.792341"
     ry="0.00099278835" />
  <rect
     style="fill:#000000;fill-opacity:1;stroke-width:0"
     id="rect871-3"
     width="1.6952431"
     height="1.3960825"
     x="78.655586"
     y="25.88529"
     ry="0.00099278835" />
  <rect
     style="fill:#000000;fill-opacity:1;stroke-width:0"
     id="rect871-6"
     width="1.6952431"
     height="1.3960825"
     x="79.538971"
     y="26.879541"
     ry="0.00099278835" />
  <rect
     style="fill:#000000;fill-opacity:1;stroke-width:0"
     id="rect871-9-9"
     width="1.6952431"
     height="1.3960825"
     x="80.240143"
     y="27.887835"
     ry="0.00099278835" />
  <rect
     style="fill:#000000;fill-opacity:1;stroke-width:0"
     id="rect871-3-6"
     width="1.6952431"
     height="1.3960825"
     x="81.086304"
     y="28.980783"
     ry="0.00099278835" />
  <rect
     style="fill:#000000;fill-opacity:1;stroke-width:0"
     id="rect871-2"
     width="1.6952431"
     height="1.3960825"
     x="81.884499"
     y="30.056154"
     ry="0.00099278835" />
  <rect
     style="fill:#000000;fill-opacity:1;stroke-width:0"
     id="rect871-9-7"
     width="1.6952431"
     height="1.3960825"
     x="82.58567"
     y="31.064447"
     ry="0.00099278835" />
  <rect
     style="fill:#000000;fill-opacity:1;stroke-width:0"
     id="rect871-3-2"
     width="1.6952431"
     height="1.3960825"
     x="83.431831"
     y="32.157398"
     ry="0.00099278835" />
  <rect
     style="fill:#000000;fill-opacity:1;stroke-width:0"
     id="rect871-6-2"
     width="1.6952431"
     height="1.3960825"
     x="84.315216"
     y="33.151649"
     ry="0.00099278835" />
  <rect
     style="fill:#000000;fill-opacity:1;stroke-width:0"
     id="rect871-9-9-0"
     width="1.6952431"
     height="1.3960825"
     x="85.016388"
     y="34.159943"
     ry="0.00099278835" />
  <rect
     style="fill:#000000;fill-opacity:1;stroke-width:0"
     id="rect871-3-6-2"
     width="1.6952431"
     height="1.3960825"
     x="85.862549"
     y="35.252892"
     ry="0.00099278835" />
  <rect
     style="fill:#000000;fill-opacity:1;stroke-width:0"
     id="rect871-31"
     width="1.6952431"
     height="1.3960825"
     x="86.667381"
     y="36.347496"
     ry="0.00099278835" />
  <rect
     style="fill:#000000;fill-opacity:1;stroke-width:0"
     id="rect871-9-1"
     width="1.6952431"
     height="1.3960825"
     x="87.368553"
     y="37.355789"
     ry="0.00099278835" />
  <rect
     style="fill:#000000;fill-opacity:1;stroke-width:0"
     id="rect871-7"
     width="1.6952431"
     height="1.3960825"
     x="-8.7104473"
     y="95.608788"
     ry="0.00099278835"
     inkscape:export-filename="CrackDecals\Crack3.png"
     inkscape:export-xdpi="96"
     inkscape:export-ydpi="96"
     transform="rotate(-52.897513)" />
  <rect
     style="fill:#000000;fill-opacity:1;stroke-width:0"
     id="rect871-9-8"
     width="1.6952431"
     height="1.3960825"
     x="-8.0092754"
     y="96.617081"
     ry="0.00099278835"
     transform="rotate(-52.897513)" />
  <rect
     style="fill:#000000;fill-opacity:1;stroke-width:0"
     id="rect871-3-65"
     width="1.6952431"
     height="1.3960825"
     x="-7.163115"
     y="97.71003"
     ry="0.00099278835"
     transform="rotate(-52.897513)" />
  <rect
     style="fill:#000000;fill-opacity:1;stroke-width:0"
     id="rect871-6-7"
     width="1.6952431"
     height="1.3960825"
     x="-6.2797322"
     y="98.704285"
     ry="0.00099278835"
     transform="rotate(-52.897513)" />
  <rect
     style="fill:#000000;fill-opacity:1;stroke-width:0"
     id="rect871-9-9-2"
     width="1.6952431"
     height="1.3960825"
     x="-5.5785604"
     y="99.712578"
     ry="0.00099278835"
     transform="rotate(-52.897513)" />
  <rect
     style="fill:#000000;fill-opacity:1;stroke-width:0"
     id="rect871-3-6-8"
     width="1.6952431"
     height="1.3960825"
     x="-4.7323995"
     y="100.80553"
     ry="0.00099278835"
     transform="rotate(-52.897513)" />
  <rect
     style="fill:#000000;fill-opacity:1;stroke-width:0"
     id="rect871-2-4"
     width="1.6952431"
     height="1.3960825"
     x="-3.9342043"
     y="101.8809"
     ry="0.00099278835"
     transform="rotate(-52.897513)" />
  <rect
     style="fill:#000000;fill-opacity:1;stroke-width:0"
     id="rect871-9-7-8"
     width="1.6952431"
     height="1.3960825"
     x="-3.2330325"
     y="102.88919"
     ry="0.00099278835"
     transform="rotate(-52.897513)" />
  <rect
     style="fill:#000000;fill-opacity:1;stroke-width:0"
     id="rect871-3-2-1"
     width="1.6952431"
     height="1.3960825"
     x="-2.3868716"
     y="103.98214"
     ry="0.00099278835"
     transform="rotate(-52.897513)" />
  <rect
     style="fill:#000000;fill-opacity:1;stroke-width:0"
     id="rect871-6-2-0"
     width="1.6952431"
     height="1.3960825"
     x="-1.5034869"
     y="104.97639"
     ry="0.00099278835"
     transform="rotate(-52.897513)" />
  <rect
     style="fill:#000000;fill-opacity:1;stroke-width:0"
     id="rect871-9-9-0-4"
     width="1.6952431"
     height="1.3960825"
     x="-0.802315"
     y="105.98469"
     ry="0.00099278835"
     transform="rotate(-52.897513)" />
  <rect
     style="fill:#000000;fill-opacity:1;stroke-width:0"
     id="rect871-3-6-2-1"
     width="1.6952431"
     height="1.3960825"
     x="0.043845885"
     y="107.07763"
     ry="0.00099278835"
     transform="rotate(-52.897513)" />
  <rect
     style="fill:#000000;fill-opacity:1;stroke-width:0"
     id="rect871-31-4"
     width="1.6952431"
     height="1.3960825"
     x="0.84867835"
     y="108.17223"
     ry="0.00099278835"
     transform="rotate(-52.897513)" />
  <rect
     style="fill:#000000;fill-opacity:1;stroke-width:0"
     id="rect871-9-1-0"
     width="1.6952431"
     height="1.3960825"
     x="1.5498426"
     y="109.18053"
     ry="0.00099278835"
     transform="rotate(-52.897513)" />
  <rect
     style="fill:#000000;fill-opacity:1;stroke-width:0"
     id="rect871-3-28"
     width="1.6952431"
     height="1.3960825"
     x="88.214714"
     y="38.448738"
     ry="0.00099278835" />
  <rect
     style="fill:#000000;fill-opacity:1;stroke-width:0"
     id="rect871-6-6"
     width="1.6952431"
     height="1.3960825"
     x="89.098099"
     y="39.442989"
     ry="0.00099278835" />
  <rect
     style="fill:#000000;fill-opacity:1;stroke-width:0"
     id="rect871-74"
     width="1.6952431"
     height="1.3960825"
     x="104.7942"
     y="22.684906"
     ry="0.00099278835"
     inkscape:export-filename="CrackDecals\Crack4.png"
     inkscape:export-xdpi="96"
     inkscape:export-ydpi="96" />
  <rect
     style="fill:#000000;fill-opacity:1;stroke-width:0"
     id="rect871-9-4"
     width="1.6952431"
     height="1.3960825"
     x="105.49538"
     y="23.693199"
     ry="0.00099278835" />
  <rect
     style="fill:#000000;fill-opacity:1;stroke-width:0"
     id="rect871-3-22"
     width="1.6952431"
     height="1.3960825"
     x="106.34154"
     y="24.786148"
     ry="0.00099278835" />
  <rect
     style="fill:#000000;fill-opacity:1;stroke-width:0"
     id="rect871-6-4"
     width="1.6952431"
     height="1.3960825"
     x="107.22492"
     y="25.780399"
     ry="0.00099278835" />
  <rect
     style="fill:#000000;fill-opacity:1;stroke-width:0"
     id="rect871-9-9-4"
     width="1.6952431"
     height="1.3960825"
     x="107.92609"
     y="26.788692"
     ry="0.00099278835" />
  <rect
     style="fill:#000000;fill-opacity:1;stroke-width:0"
     id="rect871-3-6-9"
     width="1.6952431"
     height="1.3960825"
     x="108.77225"
     y="27.881641"
     ry="0.00099278835" />
  <rect
     style="fill:#000000;fill-opacity:1;stroke-width:0"
     id="rect871-2-16"
     width="1.6952431"
     height="1.3960825"
     x="109.57045"
     y="28.957012"
     ry="0.00099278835" />
  <rect
     style="fill:#000000;fill-opacity:1;stroke-width:0"
     id="rect871-9-7-1"
     width="1.6952431"
     height="1.3960825"
     x="110.27162"
     y="29.965305"
     ry="0.00099278835" />
  <rect
     style="fill:#000000;fill-opacity:1;stroke-width:0"
     id="rect871-3-2-5"
     width="1.6952431"
     height="1.3960825"
     x="111.11778"
     y="31.058254"
     ry="0.00099278835" />
  <rect
     style="fill:#000000;fill-opacity:1;stroke-width:0"
     id="rect871-6-2-9"
     width="1.6952431"
     height="1.3960825"
     x="112.00117"
     y="32.052505"
     ry="0.00099278835" />
  <rect
     style="fill:#000000;fill-opacity:1;stroke-width:0"
     id="rect871-9-9-0-0"
     width="1.6952431"
     height="1.3960825"
     x="112.70234"
     y="33.060799"
     ry="0.00099278835" />
  <rect
     style="fill:#000000;fill-opacity:1;stroke-width:0"
     id="rect871-3-6-2-9"
     width="1.6952431"
     height="1.3960825"
     x="113.5485"
     y="34.153748"
     ry="0.00099278835" />
  <rect
     style="fill:#000000;fill-opacity:1;stroke-width:0"
     id="rect871-31-8"
     width="1.6952431"
     height="1.3960825"
     x="114.35333"
     y="35.248352"
     ry="0.00099278835" />
  <rect
     style="fill:#000000;fill-opacity:1;stroke-width:0"
     id="rect871-9-1-4"
     width="1.6952431"
     height="1.3960825"
     x="115.0545"
     y="36.256645"
     ry="0.00099278835" />
  <rect
     style="fill:#000000;fill-opacity:1;stroke-width:0"
     id="rect871-3-28-0"
     width="1.6952431"
     height="1.3960825"
     x="115.90067"
     y="37.349594"
     ry="0.00099278835" />
  <rect
     style="fill:#000000;fill-opacity:1;stroke-width:0"
     id="rect871-6-6-9"
     width="1.6952431"
     height="1.3960825"
     x="116.78405"
     y="38.343845"
     ry="0.00099278835" />
  <rect
     style="fill:#000000;fill-opacity:1;stroke-width:0"
     id="rect871-74-2"
     width="1.7079674"
     height="1.4065614"
     x="-118.35614"
     y="22.734768"
     ry="0.0010002401"
     inkscape:export-filename="CrackDecals\Crack1.png"
     inkscape:export-xdpi="96"
     inkscape:export-ydpi="96"
     transform="scale(-1,1)" />
  <rect
     style="fill:#000000;fill-opacity:1;stroke-width:0"
     id="rect871-9-4-4"
     width="1.7079674"
     height="1.4065614"
     x="-117.6497"
     y="23.750629"
     ry="0.0010002401"
     transform="scale(-1,1)" />
  <rect
     style="fill:#000000;fill-opacity:1;stroke-width:0"
     id="rect871-3-22-2"
     width="1.7079674"
     height="1.4065614"
     x="-116.79719"
     y="24.851782"
     ry="0.0010002401"
     transform="scale(-1,1)" />
  <rect
     style="fill:#000000;fill-opacity:1;stroke-width:0"
     id="rect871-6-4-8"
     width="1.7079674"
     height="1.4065614"
     x="-115.90718"
     y="25.853497"
     ry="0.0010002401"
     transform="scale(-1,1)" />
  <rect
     style="fill:#000000;fill-opacity:1;stroke-width:0"
     id="rect871-9-9-4-1"
     width="1.7079674"
     height="1.4065614"
     x="-115.20074"
     y="26.869356"
     ry="0.0010002401"
     transform="scale(-1,1)" />
  <rect
     style="fill:#000000;fill-opacity:1;stroke-width:0"
     id="rect871-3-6-9-5"
     width="1.7079674"
     height="1.4065614"
     x="-114.34823"
     y="27.970509"
     ry="0.0010002401"
     transform="scale(-1,1)" />
  <rect
     style="fill:#000000;fill-opacity:1;stroke-width:0"
     id="rect871-2-16-6"
     width="1.7079674"
     height="1.4065614"
     x="-113.54404"
     y="29.053951"
     ry="0.0010002401"
     transform="scale(-1,1)" />
  <rect
     style="fill:#000000;fill-opacity:1;stroke-width:0"
     id="rect871-9-7-1-5"
     width="1.7079674"
     height="1.4065614"
     x="-112.8376"
     y="30.069813"
     ry="0.0010002401"
     transform="scale(-1,1)" />
  <rect
     style="fill:#000000;fill-opacity:1;stroke-width:0"
     id="rect871-3-2-5-7"
     width="1.7079674"
     height="1.4065614"
     x="-111.98508"
     y="31.170965"
     ry="0.0010002401"
     transform="scale(-1,1)" />
  <rect
     style="fill:#000000;fill-opacity:1;stroke-width:0"
     id="rect871-6-2-9-3"
     width="1.7079674"
     height="1.4065614"
     x="-111.09508"
     y="32.17268"
     ry="0.0010002401"
     transform="scale(-1,1)" />
  <rect
     style="fill:#000000;fill-opacity:1;stroke-width:0"
     id="rect871-9-9-0-0-9"
     width="1.7079674"
     height="1.4065614"
     x="-110.38864"
     y="33.188541"
     ry="0.0010002401"
     transform="scale(-1,1)" />
  <rect
     style="fill:#000000;fill-opacity:1;stroke-width:0"
     id="rect871-3-6-2-9-6"
     width="1.7079674"
     height="1.4065614"
     x="-109.53613"
     y="34.289692"
     ry="0.0010002401"
     transform="scale(-1,1)" />
  <rect
     style="fill:#000000;fill-opacity:1;stroke-width:0"
     id="rect871-31-8-8"
     width="1.7079674"
     height="1.4065614"
     x="-108.72526"
     y="35.392513"
     ry="0.0010002401"
     transform="scale(-1,1)" />
  <rect
     style="fill:#000000;fill-opacity:1;stroke-width:0"
     id="rect871-9-1-4-7"
     width="1.7079674"
     height="1.4065614"
     x="-108.01883"
     y="36.408371"
     ry="0.0010002401"
     transform="scale(-1,1)" />
  <rect
     style="fill:#000000;fill-opacity:1;stroke-width:0"
     id="rect871-3-28-0-5"
     width="1.7079674"
     height="1.4065614"
     x="-107.1663"
     y="37.509525"
     ry="0.0010002401"
     transform="scale(-1,1)" />
  <rect
     style="fill:#000000;fill-opacity:1;stroke-width:0"
     id="rect871-6-6-9-6"
     width="1.7079674"
     height="1.4065614"
     x="-106.27629"
     y="38.511238"
     ry="0.0010002401"
     transform="scale(-1,1)" />
  <rect
     style="fill:#000000;fill-opacity:1;stroke-width:0"
     id="rect871-74-3"
     width="1.6952431"
     height="1.3960825"
     x="112.67209"
     y="49.709076"
     ry="0.00099278835"
     inkscape:export-filename="CrackDecals\Crack5.png"
     inkscape:export-xdpi="96"
     inkscape:export-ydpi="96" />
  <rect
     style="fill:#000000;fill-opacity:1;stroke-width:0"
     id="rect871-9-4-6"
     width="1.6952431"
     height="1.3960825"
     x="113.37327"
     y="50.717369"
     ry="0.00099278835" />
  <rect
     style="fill:#000000;fill-opacity:1;stroke-width:0"
     id="rect871-3-22-3"
     width="1.6952431"
     height="1.3960825"
     x="114.21943"
     y="51.810318"
     ry="0.00099278835" />
  <rect
     style="fill:#000000;fill-opacity:1;stroke-width:0"
     id="rect871-6-4-80"
     width="1.6952431"
     height="1.3960825"
     x="115.10281"
     y="52.804569"
     ry="0.00099278835" />
  <rect
     style="fill:#000000;fill-opacity:1;stroke-width:0"
     id="rect871-9-9-4-7"
     width="1.6952431"
     height="1.3960825"
     x="115.80398"
     y="53.812862"
     ry="0.00099278835" />
  <rect
     style="fill:#000000;fill-opacity:1;stroke-width:0"
     id="rect871-3-6-9-3"
     width="1.6952431"
     height="1.3960825"
     x="116.65014"
     y="54.905811"
     ry="0.00099278835" />
  <rect
     style="fill:#000000;fill-opacity:1;stroke-width:0"
     id="rect871-2-16-9"
     width="1.6952431"
     height="1.3960825"
     x="117.44833"
     y="55.981182"
     ry="0.00099278835" />
  <rect
     style="fill:#000000;fill-opacity:1;stroke-width:0"
     id="rect871-9-7-1-0"
     width="1.6952431"
     height="1.3960825"
     x="118.14952"
     y="56.989475"
     ry="0.00099278835" />
  <rect
     style="fill:#000000;fill-opacity:1;stroke-width:0"
     id="rect871-3-2-5-78"
     width="1.6952431"
     height="1.3960825"
     x="118.99567"
     y="58.082424"
     ry="0.00099278835" />
  <rect
     style="fill:#000000;fill-opacity:1;stroke-width:0"
     id="rect871-6-2-9-1"
     width="1.6952431"
     height="1.3960825"
     x="119.87906"
     y="59.076675"
     ry="0.00099278835" />
  <rect
     style="fill:#000000;fill-opacity:1;stroke-width:0"
     id="rect871-9-9-0-0-1"
     width="1.6952431"
     height="1.3960825"
     x="120.58023"
     y="60.084969"
     ry="0.00099278835" />
  <rect
     style="fill:#000000;fill-opacity:1;stroke-width:0"
     id="rect871-3-6-2-9-3"
     width="1.6952431"
     height="1.3960825"
     x="121.42638"
     y="61.177917"
     ry="0.00099278835" />
  <rect
     style="fill:#000000;fill-opacity:1;stroke-width:0"
     id="rect871-31-8-4"
     width="1.6952431"
     height="1.3960825"
     x="122.23122"
     y="62.272522"
     ry="0.00099278835" />
  <rect
     style="fill:#000000;fill-opacity:1;stroke-width:0"
     id="rect871-9-1-4-8"
     width="1.6952431"
     height="1.3960825"
     x="122.93239"
     y="63.280815"
     ry="0.00099278835" />
  <rect
     style="fill:#000000;fill-opacity:1;stroke-width:0"
     id="rect871-3-28-0-4"
     width="1.6952431"
     height="1.3960825"
     x="123.77856"
     y="64.373764"
     ry="0.00099278835" />
  <rect
     style="fill:#000000;fill-opacity:1;stroke-width:0"
     id="rect871-6-6-9-3"
     width="1.6952431"
     height="1.3960825"
     x="124.66193"
     y="65.368019"
     ry="0.00099278835" />
  <rect
     style="fill:#000000;fill-opacity:1;stroke-width:0"
     id="rect871-9-9-7"
     width="1.6952431"
     height="1.3960825"
     x="89.799271"
     y="40.451283"
     ry="0.00099278835" />
  <rect
     style="fill:#000000;fill-opacity:1;stroke-width:0"
     id="rect871-3-6-0"
     width="1.6952431"
     height="1.3960825"
     x="90.645432"
     y="41.544231"
     ry="0.00099278835" />
  <rect
     style="fill:#000000;fill-opacity:1;stroke-width:0"
     id="rect871-2-1"
     width="1.6952431"
     height="1.3960825"
     x="91.443626"
     y="42.619602"
     ry="0.00099278835" />
  <rect
     style="fill:#000000;fill-opacity:1;stroke-width:0"
     id="rect871-9-7-6"
     width="2.3122303"
     height="1.3960825"
     x="92.144798"
     y="43.627895"
     ry="0.00099278835" />
  <rect
     style="fill:#000000;fill-opacity:1;stroke-width:0"
     id="rect871-9-7-6-9"
     width="1.6952431"
     height="1.3960825"
     x="93.58667"
     y="42.614456"
     ry="0.00099278835" />
  <rect
     style="fill:#000000;fill-opacity:1;stroke-width:0"
     id="rect871-9-7-6-9-4"
     width="1.6952431"
     height="1.3960825"
     x="94.362312"
     y="41.521511"
     ry="0.00099278835" />
  <rect
     style="fill:#000000;fill-opacity:1;stroke-width:0"
     id="rect871-9-7-6-9-7"
     width="1.6952431"
     height="1.3960825"
     x="95.190842"
     y="40.358047"
     ry="0.00099278835" />
  <rect
     style="fill:#000000;fill-opacity:1;stroke-width:0"
     id="rect871-9-7-6-9-0"
     width="1.6952431"
     height="1.3960825"
     x="95.9841"
     y="39.353241"
     ry="0.00099278835" />
  <rect
     style="fill:#000000;fill-opacity:1;stroke-width:0"
     id="rect871-9-7-6-9-0-9"
     width="1.6952431"
     height="1.3960825"
     x="97.42662"
     y="39.935429"
     ry="0.00099278835" />
  <rect
     style="fill:#000000;fill-opacity:1;stroke-width:0"
     id="rect871-9-7-6-9-0-9-1"
     width="1.6952431"
     height="1.3960825"
     x="98.152374"
     y="40.728241"
     ry="0.00099278835" />
  <rect
     style="fill:#000000;fill-opacity:1;stroke-width:0"
     id="rect871-9-7-6-9-0-9-6"
     width="1.6952431"
     height="1.3960825"
     x="98.892761"
     y="41.539139"
     ry="0.00099278835" />
  <rect
     style="fill:#000000;fill-opacity:1;stroke-width:0"
     id="rect871-9-9-7-4"
     width="1.9944037"
     height="1.3960825"
     x="66.553749"
     y="45.729481"
     ry="0.00099278835"
     inkscape:export-filename="CrackDecals\Crack2.png"
     inkscape:export-xdpi="96"
     inkscape:export-ydpi="96" />
  <rect
     style="fill:#000000;fill-opacity:1;stroke-width:0"
     id="rect871-3-6-0-4"
     width="1.6952431"
     height="1.3960825"
     x="67.699074"
     y="46.82243"
     ry="0.00099278835" />
  <rect
     style="fill:#000000;fill-opacity:1;stroke-width:0"
     id="rect871-2-1-3"
     width="1.6952431"
     height="1.3960825"
     x="68.497269"
     y="47.8978"
     ry="0.00099278835" />
  <rect
     style="fill:#000000;fill-opacity:1;stroke-width:0"
     id="rect871-9-7-6-90"
     width="2.3122303"
     height="1.3960825"
     x="69.198441"
     y="48.906094"
     ry="0.00099278835" />
  <rect
     style="fill:#000000;fill-opacity:1;stroke-width:0"
     id="rect871-9-7-6-9-3"
     width="1.6952431"
     height="1.3960825"
     x="70.640312"
     y="47.892654"
     ry="0.00099278835" />
  <rect
     style="fill:#000000;fill-opacity:1;stroke-width:0"
     id="rect871-9-7-6-9-4-0"
     width="1.6952431"
     height="1.3960825"
     x="71.415955"
     y="46.799709"
     ry="0.00099278835" />
  <rect
     style="fill:#000000;fill-opacity:1;stroke-width:0"
     id="rect871-9-7-6-9-7-2"
     width="1.6952431"
     height="1.3960825"
     x="72.244484"
     y="45.636246"
     ry="0.00099278835" />
  <rect
     style="fill:#000000;fill-opacity:1;stroke-width:0"
     id="rect871-9-7-6-9-0-3"
     width="1.6952431"
     height="1.3960825"
     x="73.037743"
     y="44.631439"
     ry="0.00099278835" />
  <rect
     style="fill:#000000;fill-opacity:1;stroke-width:0"
     id="rect871-9-7-6-9-3-9"
     width="1.6952431"
     height="1.3960825"
     x="64.018288"
     y="48.997696"
     ry="0.00099278835" />
  <rect
     style="fill:#000000;fill-opacity:1;stroke-width:0"
     id="rect871-9-7-6-9-4-0-7"
     width="1.6952431"
     height="1.3960825"
     x="64.79393"
     y="47.904751"
     ry="0.00099278835" />
  <rect
     style="fill:#000000;fill-opacity:1;stroke-width:0"
     id="rect871-9-7-6-9-7-2-7"
     width="1.6952431"
     height="1.3960825"
     x="65.622459"
     y="46.741287"
     ry="0.00099278835" />
  <rect
     style="fill:#000000;fill-opacity:1;stroke-width:0"
     id="rect871-9-7-6-9-0-9-7"
     width="1.6952431"
     height="1.3960825"
     x="74.480263"
     y="45.213627"
     ry="0.00099278835" />
  <rect
     style="fill:#000000;fill-opacity:1;stroke-width:0"
     id="rect871-9-7-6-9-0-9-1-8"
     width="1.6952431"
     height="1.3960825"
     x="75.206017"
     y="46.006439"
     ry="0.00099278835" />
  <rect
     style="fill:#000000;fill-opacity:1;stroke-width:0"
     id="rect871-9-7-6-9-0-9-6-5"
     width="1.6952431"
     height="1.3960825"
     x="75.946404"
     y="46.817337"
     ry="0.00099278835" />
  <rect
     style="fill:#000000;fill-opacity:1;stroke-width:0"
     id="rect2215"
     width="1.6952431"
     height="1.3960825"
     x="112.67209"
     y="49.709076"
     ry="0.00099278835"
     inkscape:export-filename="CrackDecals\Crack1.png"
     inkscape:export-xdpi="96"
     inkscape:export-ydpi="96" />
  <rect
     style="fill:#000000;fill-opacity:1;stroke-width:0"
     id="rect2217"
     width="1.6952431"
     height="1.3960825"
     x="113.37327"
     y="50.717369"
     ry="0.00099278835" />
  <rect
     style="fill:#000000;fill-opacity:1;stroke-width:0"
     id="rect2219"
     width="1.6952431"
     height="1.3960825"
     x="114.21943"
     y="51.810318"
     ry="0.00099278835" />
  <rect
     style="fill:#000000;fill-opacity:1;stroke-width:0"
     id="rect2221"
     width="1.6952431"
     height="1.3960825"
     x="115.10281"
     y="52.804569"
     ry="0.00099278835" />
  <rect
     style="fill:#000000;fill-opacity:1;stroke-width:0"
     id="rect2223"
     width="1.6952431"
     height="1.3960825"
     x="115.80398"
     y="53.812862"
     ry="0.00099278835" />
  <rect
     style="fill:#000000;fill-opacity:1;stroke-width:0"
     id="rect2225"
     width="1.6952431"
     height="1.3960825"
     x="116.65014"
     y="54.905811"
     ry="0.00099278835" />
  <rect
     style="fill:#000000;fill-opacity:1;stroke-width:0"
     id="rect2227"
     width="1.6952431"
     height="1.3960825"
     x="117.44833"
     y="55.981182"
     ry="0.00099278835" />
  <rect
     style="fill:#000000;fill-opacity:1;stroke-width:0"
     id="rect2229"
     width="1.6952431"
     height="1.3960825"
     x="118.14952"
     y="56.989475"
     ry="0.00099278835" />
  <rect
     style="fill:#000000;fill-opacity:1;stroke-width:0"
     id="rect2231"
     width="1.6952431"
     height="1.3960825"
     x="118.99567"
     y="58.082424"
     ry="0.00099278835" />
  <rect
     style="fill:#000000;fill-opacity:1;stroke-width:0"
     id="rect2233"
     width="1.6952431"
     height="1.3960825"
     x="119.87906"
     y="59.076675"
     ry="0.00099278835" />
  <rect
     style="fill:#000000;fill-opacity:1;stroke-width:0"
     id="rect2235"
     width="1.6952431"
     height="1.3960825"
     x="120.58023"
     y="60.084969"
     ry="0.00099278835" />
  <rect
     style="fill:#000000;fill-opacity:1;stroke-width:0"
     id="rect2237"
     width="1.6952431"
     height="1.3960825"
     x="121.42638"
     y="61.177917"
     ry="0.00099278835" />
  <rect
     style="fill:#000000;fill-opacity:1;stroke-width:0"
     id="rect2239"
     width="1.6952431"
     height="1.3960825"
     x="122.23122"
     y="62.272522"
     ry="0.00099278835" />
  <rect
     style="fill:#000000;fill-opacity:1;stroke-width:0"
     id="rect2241"
     width="1.6952431"
     height="1.3960825"
     x="122.93239"
     y="63.280815"
     ry="0.00099278835" />
  <rect
     style="fill:#000000;fill-opacity:1;stroke-width:0"
     id="rect2243"
     width="1.6952431"
     height="1.3960825"
     x="123.77856"
     y="64.373764"
     ry="0.00099278835" />
  <rect
     style="fill:#000000;fill-opacity:1;stroke-width:0"
     id="rect2245"
     width="1.6952431"
     height="1.3960825"
     x="124.66193"
     y="65.368019"
     ry="0.00099278835" />
  <rect
     style="fill:#000000;fill-opacity:1;stroke-width:0"
     id="rect871-74-4"
     width="1.6997378"
     height="1.3960825"
     x="-139.39024"
     y="40.526234"
     ry="0.00099278835"
     inkscape:export-filename="CrackDecals\Crack1.png"
     inkscape:export-xdpi="96"
     inkscape:export-ydpi="96"
     transform="matrix(-0.99735568,-0.072675,0,1,0,0)" />
  <rect
     style="fill:#000000;fill-opacity:1;stroke-width:0"
     id="rect871-9-4-7"
     width="1.6997378"
     height="1.3960825"
     x="-138.68719"
     y="41.534527"
     ry="0.00099278835"
     transform="matrix(-0.99735568,-0.072675,0,1,0,0)" />
  <rect
     style="fill:#000000;fill-opacity:1;stroke-width:0"
     id="rect871-3-22-8"
     width="1.6997378"
     height="1.3960825"
     x="-137.83881"
     y="42.627476"
     ry="0.00099278835"
     transform="matrix(-0.99735568,-0.072675,0,1,0,0)" />
  <rect
     style="fill:#000000;fill-opacity:1;stroke-width:0"
     id="rect871-6-4-2"
     width="1.6997378"
     height="1.3960825"
     x="-136.95306"
     y="43.621727"
     ry="0.00099278835"
     transform="matrix(-0.99735568,-0.072675,0,1,0,0)" />
  <rect
     style="fill:#000000;fill-opacity:1;stroke-width:0"
     id="rect871-9-9-4-77"
     width="1.6997378"
     height="1.3960825"
     x="-136.25005"
     y="44.63002"
     ry="0.00099278835"
     transform="matrix(-0.99735568,-0.072675,0,1,0,0)" />
  <rect
     style="fill:#000000;fill-opacity:1;stroke-width:0"
     id="rect871-3-6-9-6"
     width="1.6997378"
     height="1.3960825"
     x="-135.40166"
     y="45.722969"
     ry="0.00099278835"
     transform="matrix(-0.99735568,-0.072675,0,1,0,0)" />
  <rect
     style="fill:#000000;fill-opacity:1;stroke-width:0"
     id="rect871-2-16-0"
     width="1.6997378"
     height="1.3960825"
     x="-134.60132"
     y="46.79834"
     ry="0.00099278835"
     transform="matrix(-0.99735568,-0.072675,0,1,0,0)" />
  <rect
     style="fill:#000000;fill-opacity:1;stroke-width:0"
     id="rect871-9-7-1-1"
     width="1.6997378"
     height="1.3960825"
     x="-133.8983"
     y="47.806633"
     ry="0.00099278835"
     transform="matrix(-0.99735568,-0.072675,0,1,0,0)" />
  <rect
     style="fill:#000000;fill-opacity:1;stroke-width:0"
     id="rect871-3-2-5-6"
     width="1.6997378"
     height="1.3960825"
     x="-133.04988"
     y="48.899582"
     ry="0.00099278835"
     transform="matrix(-0.99735568,-0.072675,0,1,0,0)" />
  <rect
     style="fill:#000000;fill-opacity:1;stroke-width:0"
     id="rect871-6-2-9-2"
     width="1.6997378"
     height="1.3960825"
     x="-132.16418"
     y="49.893833"
     ry="0.00099278835"
     transform="matrix(-0.99735568,-0.072675,0,1,0,0)" />
  <rect
     style="fill:#000000;fill-opacity:1;stroke-width:0"
     id="rect871-9-9-0-0-5"
     width="1.6997378"
     height="1.3960825"
     x="-131.46112"
     y="50.902126"
     ry="0.00099278835"
     transform="matrix(-0.99735568,-0.072675,0,1,0,0)" />
  <rect
     style="fill:#000000;fill-opacity:1;stroke-width:0"
     id="rect871-3-6-2-9-66"
     width="1.6997378"
     height="1.3960825"
     x="-130.61273"
     y="51.995075"
     ry="0.00099278835"
     transform="matrix(-0.99735568,-0.072675,0,1,0,0)" />
  <rect
     style="fill:#000000;fill-opacity:1;stroke-width:0"
     id="rect871-31-8-2"
     width="1.6997378"
     height="1.3960825"
     x="-129.80576"
     y="53.08968"
     ry="0.00099278835"
     transform="matrix(-0.99735568,-0.072675,0,1,0,0)" />
  <rect
     style="fill:#000000;fill-opacity:1;stroke-width:0"
     id="rect871-9-1-4-3"
     width="1.6997378"
     height="1.3960825"
     x="-129.10274"
     y="54.097973"
     ry="0.00099278835"
     transform="matrix(-0.99735568,-0.072675,0,1,0,0)" />
  <rect
     style="fill:#000000;fill-opacity:1;stroke-width:0"
     id="rect871-3-28-0-2"
     width="1.6997378"
     height="1.3960825"
     x="-128.25432"
     y="55.190922"
     ry="0.00099278835"
     transform="matrix(-0.99735568,-0.072675,0,1,0,0)" />
  <rect
     style="fill:#000000;fill-opacity:1;stroke-width:0"
     id="rect871-6-6-9-9"
     width="1.6997378"
     height="1.3960825"
     x="-127.3686"
     y="56.185169"
     ry="0.00099278835"
     transform="matrix(-0.99735568,-0.072675,0,1,0,0)" />
  <rect
     style="fill:#000000;fill-opacity:1;stroke-width:0"
     id="rect871-74-3-1"
     width="1.6952431"
     height="1.3960825"
     x="138.20045"
     y="50.519901"
     ry="0.00099278835"
     inkscape:export-filename="CrackDecals\Crack1.png"
     inkscape:export-xdpi="96"
     inkscape:export-ydpi="96" />
  <rect
     style="fill:#000000;fill-opacity:1;stroke-width:0"
     id="rect871-9-4-6-3"
     width="1.6952431"
     height="1.3960825"
     x="138.90164"
     y="51.528194"
     ry="0.00099278835" />
  <rect
     style="fill:#000000;fill-opacity:1;stroke-width:0"
     id="rect871-3-22-3-2"
     width="1.6952431"
     height="1.3960825"
     x="139.7478"
     y="52.621143"
     ry="0.00099278835" />
  <rect
     style="fill:#000000;fill-opacity:1;stroke-width:0"
     id="rect871-6-4-80-3"
     width="1.6952431"
     height="1.3960825"
     x="140.63118"
     y="53.615395"
     ry="0.00099278835" />
  <rect
     style="fill:#000000;fill-opacity:1;stroke-width:0"
     id="rect871-9-9-4-7-6"
     width="1.6952431"
     height="1.3960825"
     x="141.33235"
     y="54.623688"
     ry="0.00099278835" />
  <rect
     style="fill:#000000;fill-opacity:1;stroke-width:0"
     id="rect871-3-6-9-3-0"
     width="1.6952431"
     height="1.3960825"
     x="142.17851"
     y="55.716637"
     ry="0.00099278835" />
  <rect
     style="fill:#000000;fill-opacity:1;stroke-width:0"
     id="rect871-2-16-9-1"
     width="1.6952431"
     height="1.3960825"
     x="142.9767"
     y="56.792007"
     ry="0.00099278835" />
  <rect
     style="fill:#000000;fill-opacity:1;stroke-width:0"
     id="rect871-9-7-1-0-4"
     width="1.6952431"
     height="1.3960825"
     x="143.67789"
     y="57.800301"
     ry="0.00099278835" />
  <rect
     style="fill:#000000;fill-opacity:1;stroke-width:0"
     id="rect871-3-2-5-78-0"
     width="1.6952431"
     height="1.3960825"
     x="144.52403"
     y="58.89325"
     ry="0.00099278835" />
  <rect
     style="fill:#000000;fill-opacity:1;stroke-width:0"
     id="rect871-6-2-9-1-2"
     width="1.6952431"
     height="1.3960825"
     x="145.40742"
     y="59.887497"
     ry="0.00099278835" />
  <rect
     style="fill:#000000;fill-opacity:1;stroke-width:0"
     id="rect871-9-9-0-0-1-2"
     width="1.6952431"
     height="1.3960825"
     x="146.1086"
     y="60.89579"
     ry="0.00099278835" />
  <rect
     style="fill:#000000;fill-opacity:1;stroke-width:0"
     id="rect871-3-6-2-9-3-5"
     width="1.6952431"
     height="1.3960825"
     x="146.95474"
     y="61.988739"
     ry="0.00099278835" />
  <rect
     style="fill:#000000;fill-opacity:1;stroke-width:0"
     id="rect871-31-8-4-9"
     width="1.6952431"
     height="1.3960825"
     x="147.75958"
     y="63.083344"
     ry="0.00099278835" />
  <rect
     style="fill:#000000;fill-opacity:1;stroke-width:0"
     id="rect871-9-1-4-8-6"
     width="1.6952431"
     height="1.3960825"
     x="148.46075"
     y="64.091637"
     ry="0.00099278835" />
  <rect
     style="fill:#000000;fill-opacity:1;stroke-width:0"
     id="rect871-3-28-0-4-7"
     width="1.6952431"
     height="1.3960825"
     x="149.30692"
     y="65.184586"
     ry="0.00099278835" />
  <rect
     style="fill:#000000;fill-opacity:1;stroke-width:0"
     id="rect871-6-6-9-3-7"
     width="1.6952431"
     height="1.3960825"
     x="150.19029"
     y="66.178841"
     ry="0.00099278835" />
  <rect
     style="fill:#000000;fill-opacity:1;stroke-width:0"
     id="rect2215-9"
     width="1.6952431"
     height="1.3960825"
     x="138.20045"
     y="50.519901"
     ry="0.00099278835"
     inkscape:export-filename="CrackDecals\Crack1.png"
     inkscape:export-xdpi="96"
     inkscape:export-ydpi="96" />
  <rect
     style="fill:#000000;fill-opacity:1;stroke-width:0"
     id="rect2217-5"
     width="1.6952431"
     height="1.3960825"
     x="138.90164"
     y="51.528194"
     ry="0.00099278835" />
  <rect
     style="fill:#000000;fill-opacity:1;stroke-width:0"
     id="rect2219-6"
     width="1.6952431"
     height="1.3960825"
     x="139.7478"
     y="52.621143"
     ry="0.00099278835" />
  <rect
     style="fill:#000000;fill-opacity:1;stroke-width:0"
     id="rect2221-9"
     width="1.6952431"
     height="1.3960825"
     x="140.63118"
     y="53.615395"
     ry="0.00099278835" />
  <rect
     style="fill:#000000;fill-opacity:1;stroke-width:0"
     id="rect2223-0"
     width="1.6952431"
     height="1.3960825"
     x="141.33235"
     y="54.623688"
     ry="0.00099278835" />
  <rect
     style="fill:#000000;fill-opacity:1;stroke-width:0"
     id="rect2225-6"
     width="1.6952431"
     height="1.3960825"
     x="142.17851"
     y="55.716637"
     ry="0.00099278835" />
  <rect
     style="fill:#000000;fill-opacity:1;stroke-width:0"
     id="rect2227-1"
     width="1.6952431"
     height="1.3960825"
     x="142.9767"
     y="56.792007"
     ry="0.00099278835" />
  <rect
     style="fill:#000000;fill-opacity:1;stroke-width:0"
     id="rect2229-6"
     width="1.6952431"
     height="1.3960825"
     x="143.67789"
     y="57.800301"
     ry="0.00099278835" />
  <rect
     style="fill:#000000;fill-opacity:1;stroke-width:0"
     id="rect2231-4"
     width="1.6952431"
     height="1.3960825"
     x="144.52403"
     y="58.89325"
     ry="0.00099278835" />
  <rect
     style="fill:#000000;fill-opacity:1;stroke-width:0"
     id="rect2233-4"
     width="1.6952431"
     height="1.3960825"
     x="145.40742"
     y="59.887497"
     ry="0.00099278835" />
  <rect
     style="fill:#000000;fill-opacity:1;stroke-width:0"
     id="rect2235-5"
     width="1.6952431"
     height="1.3960825"
     x="146.1086"
     y="60.89579"
     ry="0.00099278835" />
  <rect
     style="fill:#000000;fill-opacity:1;stroke-width:0"
     id="rect2237-0"
     width="1.6952431"
     height="1.3960825"
     x="146.95474"
     y="61.988739"
     ry="0.00099278835" />
  <rect
     style="fill:#000000;fill-opacity:1;stroke-width:0"
     id="rect2239-4"
     width="1.6952431"
     height="1.3960825"
     x="147.75958"
     y="63.083344"
     ry="0.00099278835" />
  <rect
     style="fill:#000000;fill-opacity:1;stroke-width:0"
     id="rect2241-5"
     width="1.6952431"
     height="1.3960825"
     x="148.46075"
     y="64.091637"
     ry="0.00099278835" />
  <rect
     style="fill:#000000;fill-opacity:1;stroke-width:0"
     id="rect2243-2"
     width="1.6952431"
     height="1.3960825"
     x="149.30692"
     y="65.184586"
     ry="0.00099278835" />
  <rect
     style="fill:#000000;fill-opacity:1;stroke-width:0"
     id="rect2245-5"
     width="1.6952431"
     height="1.3960825"
     x="150.19029"
     y="66.178841"
     ry="0.00099278835" />
  <rect
     style="fill:#000000;fill-opacity:1;stroke-width:0"
     id="rect871-74-4-8"
     width="1.6997378"
     height="1.3960825"
     x="-164.9863"
     y="39.476864"
     ry="0.00099278835"
     inkscape:export-filename="CrackDecals\Crack1.png"
     inkscape:export-xdpi="96"
     inkscape:export-ydpi="96"
     transform="matrix(-0.99735568,-0.072675,0,1,0,0)" />
  <rect
     style="fill:#000000;fill-opacity:1;stroke-width:0"
     id="rect871-9-4-7-8"
     width="1.6997378"
     height="1.3960825"
     x="-164.28325"
     y="40.485157"
     ry="0.00099278835"
     transform="matrix(-0.99735568,-0.072675,0,1,0,0)" />
  <rect
     style="fill:#000000;fill-opacity:1;stroke-width:0"
     id="rect871-3-22-8-3"
     width="1.6997378"
     height="1.3960825"
     x="-163.43486"
     y="41.578106"
     ry="0.00099278835"
     transform="matrix(-0.99735568,-0.072675,0,1,0,0)" />
  <rect
     style="fill:#000000;fill-opacity:1;stroke-width:0"
     id="rect871-6-4-2-2"
     width="1.6997378"
     height="1.3960825"
     x="-162.54912"
     y="42.572357"
     ry="0.00099278835"
     transform="matrix(-0.99735568,-0.072675,0,1,0,0)" />
  <rect
     style="fill:#000000;fill-opacity:1;stroke-width:0"
     id="rect871-9-9-4-77-8"
     width="1.6997378"
     height="1.3960825"
     x="-161.8461"
     y="43.58065"
     ry="0.00099278835"
     transform="matrix(-0.99735568,-0.072675,0,1,0,0)" />
  <rect
     style="fill:#000000;fill-opacity:1;stroke-width:0"
     id="rect871-3-6-9-6-9"
     width="1.6997378"
     height="1.3960825"
     x="-160.99771"
     y="44.673599"
     ry="0.00099278835"
     transform="matrix(-0.99735568,-0.072675,0,1,0,0)" />
  <rect
     style="fill:#000000;fill-opacity:1;stroke-width:0"
     id="rect871-2-16-0-5"
     width="1.6997378"
     height="1.3960825"
     x="-160.19737"
     y="45.74897"
     ry="0.00099278835"
     transform="matrix(-0.99735568,-0.072675,0,1,0,0)" />
  <rect
     style="fill:#000000;fill-opacity:1;stroke-width:0"
     id="rect871-9-7-1-1-1"
     width="1.6997378"
     height="1.3960825"
     x="-159.49435"
     y="46.757263"
     ry="0.00099278835"
     transform="matrix(-0.99735568,-0.072675,0,1,0,0)" />
  <rect
     style="fill:#000000;fill-opacity:1;stroke-width:0"
     id="rect871-3-2-5-6-7"
     width="1.6997378"
     height="1.3960825"
     x="-158.64594"
     y="47.850212"
     ry="0.00099278835"
     transform="matrix(-0.99735568,-0.072675,0,1,0,0)" />
  <rect
     style="fill:#000000;fill-opacity:1;stroke-width:0"
     id="rect871-6-2-9-2-8"
     width="1.6997378"
     height="1.3960825"
     x="-157.76024"
     y="48.844463"
     ry="0.00099278835"
     transform="matrix(-0.99735568,-0.072675,0,1,0,0)" />
  <rect
     style="fill:#000000;fill-opacity:1;stroke-width:0"
     id="rect871-9-9-0-0-5-2"
     width="1.6997378"
     height="1.3960825"
     x="-157.05717"
     y="49.852757"
     ry="0.00099278835"
     transform="matrix(-0.99735568,-0.072675,0,1,0,0)" />
  <rect
     style="fill:#000000;fill-opacity:1;stroke-width:0"
     id="rect871-3-6-2-9-66-3"
     width="1.6997378"
     height="1.3960825"
     x="-156.20879"
     y="50.945705"
     ry="0.00099278835"
     transform="matrix(-0.99735568,-0.072675,0,1,0,0)" />
  <rect
     style="fill:#000000;fill-opacity:1;stroke-width:0"
     id="rect871-31-8-2-0"
     width="1.6997378"
     height="1.3960825"
     x="-155.40181"
     y="52.04031"
     ry="0.00099278835"
     transform="matrix(-0.99735568,-0.072675,0,1,0,0)" />
  <rect
     style="fill:#000000;fill-opacity:1;stroke-width:0"
     id="rect871-9-1-4-3-5"
     width="1.6997378"
     height="1.3960825"
     x="-154.69879"
     y="53.048603"
     ry="0.00099278835"
     transform="matrix(-0.99735568,-0.072675,0,1,0,0)" />
  <rect
     style="fill:#000000;fill-opacity:1;stroke-width:0"
     id="rect871-3-28-0-2-7"
     width="1.6997378"
     height="1.3960825"
     x="-153.85037"
     y="54.141552"
     ry="0.00099278835"
     transform="matrix(-0.99735568,-0.072675,0,1,0,0)" />
  <rect
     style="fill:#000000;fill-opacity:1;stroke-width:0"
     id="rect871-6-6-9-9-3"
     width="1.6997378"
     height="1.3960825"
     x="-152.96466"
     y="55.135799"
     ry="0.00099278835"
     transform="matrix(-0.99735568,-0.072675,0,1,0,0)" />
</svg>
